<svg id="Objects" xmlns="http://www.w3.org/2000/svg" viewBox="0 0 234.15 60.09"><defs><style>.cls-1,.cls-2{fill:#fff;}.cls-2{font-size:12px;font-family:PRIMETIME-Regular, PRIMETIME;}.cls-3{letter-spacing:-0.06em;}.cls-4{letter-spacing:0em;}.cls-5{letter-spacing:0.04em;}.cls-6{letter-spacing:0.06em;}.cls-7{letter-spacing:0.02em;}.cls-8{letter-spacing:-0.02em;}.cls-9{letter-spacing:-0.03em;}.cls-10{letter-spacing:-0.02em;}.cls-11{letter-spacing:0.02em;}.cls-12{letter-spacing:-0.13em;}</style></defs><title>21</title><path class="cls-1" d="M57,14.24l8.06-4.18A97.69,97.69,0,0,1,75.46,5.93L93.3,1.68q3-.46,6.08-.78L100.9.72l1.48-.11,3-.22,3-.23L111.5.08,114.6,0a27.62,27.62,0,0,1,3.1,0c2.07.12,4.14.2,6.21.35A91.69,91.69,0,0,1,148,5.9a105.26,105.26,0,0,1,21,11.09l4.63,3.16.21.14.9-.06v.66l1.14.76c.76.52,1.36.83,2,1.27,2.9,1.49,6.37,2,9.67,2.68,6.69,1.18,13.15,1.91,19.1,2.51s11.39.92,16.3,1.07a9.08,9.08,0,0,1,3.84.94,9.46,9.46,0,0,1,2.86,2.24,15.75,15.75,0,0,1,2.92,5.35,33.23,33.23,0,0,1,1.52,8.14c.13,1.9.09,2.92.09,2.92h-.82s0-1-.25-2.83a32.13,32.13,0,0,0-1.9-7.73,14.27,14.27,0,0,0-2.86-4.64,7.08,7.08,0,0,0-5.41-2.27c-4.86.09-10.46,0-16.48-.27s-12.56-.72-19.49-1.6c-1.74-.29-3.49-.49-5.3-.86l-2.75-.66-.69-.17-.24-.08-.08,0-.16-.06-.31-.13c-.42-.18-.82-.32-1.26-.54-.74-.4-1.58-.83-2.28-1.25L166,20.8l-2-1.21-4.43-2.47a91.24,91.24,0,0,0-13.49-5.88A85.54,85.54,0,0,0,123.44,7c-1.93-.05-3.87,0-5.8-.07a25.36,25.36,0,0,0-2.89.09l-2.89.19-2.79.18-3,.37-3,.38-1.47.19-1.4.25A137.74,137.74,0,0,0,78.6,13.93Z" transform="translate(0 0)"/><path class="cls-1" d="M171.34,54.28l.22-.22a22.8,22.8,0,0,1,2.37-2.13c.26-.22.55-.42.84-.62L159,50.36l19.15-1.14A19.56,19.56,0,0,1,180.95,48a15.8,15.8,0,0,1,2.21-.6,17.55,17.55,0,0,1,2.33-.37,35.16,35.16,0,0,1,4.8-.19,25.84,25.84,0,0,1,4.74.61,21.8,21.8,0,0,1,4.35,1.45A25.11,25.11,0,0,1,206,53.21a26.56,26.56,0,0,1,3.7,4.09,16.88,16.88,0,0,1,1.14,1.75l-.41.28a16.4,16.4,0,0,0-1.39-1.45,29,29,0,0,0-4.12-3.26,26.93,26.93,0,0,0-3-1.67,24.35,24.35,0,0,0-3.55-1.34,22.49,22.49,0,0,0-3.92-.76,22,22,0,0,0-4.07-.05,20.08,20.08,0,0,0-4,.79c-.64.19-1.27.39-1.89.63s-1.24.41-1.83.66c-1.21.4-2.37.87-3.51,1.25s-2.21.82-3.2,1.24l-1.46.55c-.46.19-.88.39-1.31.54-.85.32-1.59.61-2.2.85-1.23.48-2,.69-2,.69l-.31-.39s.17-.27.48-.7L132.8,55.65Z" transform="translate(0 0)"/><path class="cls-1" d="M38.42,53.77a21.35,21.35,0,0,1,2.07-1.85c.26-.22.55-.42.84-.62l-15.8-.94,19.15-1.14A19.56,19.56,0,0,1,47.51,48a15.8,15.8,0,0,1,2.21-.6A17.55,17.55,0,0,1,52,47a35.16,35.16,0,0,1,4.8-.19,25.84,25.84,0,0,1,4.74.61,21.76,21.76,0,0,1,4.35,1.45,25.12,25.12,0,0,1,6.65,4.35,26.61,26.61,0,0,1,3.7,4.09,17.1,17.1,0,0,1,1.14,1.75l-.41.28a16.46,16.46,0,0,0-1.39-1.45,29.1,29.1,0,0,0-4.12-3.26,27,27,0,0,0-3-1.67,24.35,24.35,0,0,0-3.55-1.34A22.51,22.51,0,0,0,61,50.86a22,22,0,0,0-4.07-.05,20.05,20.05,0,0,0-4,.79c-.64.19-1.27.39-1.89.63s-1.24.41-1.83.66c-1.21.4-2.37.87-3.51,1.25s-2.21.82-3.2,1.24l-1.46.55c-.46.19-.89.39-1.31.54-.85.32-1.59.61-2.2.85-1.23.48-2,.69-2,.69l-.31-.39s.29-.47.86-1.23L0,55.13Z" transform="translate(0 0)"/><text class="cls-2" transform="translate(0.28 37.25)"><tspan class="cls-3">W</tspan><tspan class="cls-4" x="14.04" y="0">H</tspan><tspan class="cls-5" x="24.11" y="0">E</tspan><tspan class="cls-6" x="33.11" y="0">E</tspan><tspan class="cls-7" x="42.31" y="0">L</tspan><tspan x="50.53" y="0">S </tspan><tspan class="cls-8" x="63.63" y="0">D</tspan><tspan class="cls-6" x="73.67" y="0">E</tspan><tspan x="82.87" y="0">L</tspan><tspan class="cls-9" x="90.83" y="0">I</tspan><tspan class="cls-10" x="94.49" y="0">V</tspan><tspan class="cls-11" x="104.13" y="0">E</tspan><tspan class="cls-12" x="112.92" y="0">R</tspan><tspan x="120.94" y="0">Y</tspan></text></svg>